<svg width="20" height="27" viewBox="0 0 20 27" xmlns="http://www.w3.org/2000/svg"><title>Page 1</title><path d="M15.63 8.475l-4.695 4.694c0 .043-.044.043-.044.043L9.11 14.994a1.35 1.35 0 0 1-.957.391 1.35 1.35 0 0 1-.956-.391l-.913-.913a1.364 1.364 0 0 1 0-1.912l2.695-2.651c.218-.26.609-.26.87 0 .26.217.26.608 0 .87l-2.696 2.694c-.043.043-.043.087 0 .13l.913.913c.044.043.087.043.13 0l4.044-4.042c0-.044.044-.044.044-.044l2.39-2.477c.088-.13.175-.26.175-.434a.558.558 0 0 0-.174-.435l-1.609-1.608c-.217-.217-.652-.217-.87 0L5.11 12.169c-.218.26-.609.217-.87 0-.26-.217-.26-.608 0-.87l7.087-7.083c.391-.348.826-.565 1.348-.565.522 0 1 .217 1.348.565l1.608 1.608c.348.347.522.825.566 1.304 0 .521-.218 1-.566 1.347zM9.08 25.568h-.033L1.162 17.94l6.526-.086c.739 0 1.39.695 1.39 1.434v6.28zM18.479 0H1.521C.782 0 0 .695 0 1.434V18.82L8.554 27l9.924-.054c.74 0 1.522-.696 1.522-1.435V1.434C20 .695 19.217 0 18.478 0z" fill="#FFF" fill-rule="evenodd"/></svg>