<?xml version="1.0" encoding="utf-8"?>
<!DOCTYPE svg PUBLIC "-//W3C//DTD SVG 1.1//EN" "http://www.w3.org/Graphics/SVG/1.1/DTD/svg11.dtd">
<svg width="24px" height="24px" version="1.1" viewBox="0 0 24 24" x="0px" y="0px" xmlns="http://www.w3.org/2000/svg" xmlns:xlink="http://www.w3.org/1999/xlink">
    <path fill="#b19dd8" d="M12 22c5.523 0 10-4.477 10-10S17.523 2 12 2 2 6.477 2 12s4.477 10 10 10zm0 2C5.373 24 0 18.627 0 12S5.373 0 12 0s12 5.373 12 12-5.373 12-12 12zm4-12c0-.776-.223-1-1-1h-2V9c0-.776-.223-1-1-1-.776 0-1 .224-1 1v2H9c-.776 0-1 .224-1 1 0 .777.224 1 1 1h2v2c0 .777.224 1 1 1 .777 0 1-.223 1-1v-2h2c.777 0 1-.223 1-1z"/>
</svg>