<svg id="svg" version="1.1" width="1107" height="2400" xmlns="http://www.w3.org/2000/svg" xmlns:xlink="http://www.w3.org/1999/xlink" style="display: block;"><g id="svgg"><path id="path0" d="M117.796 8.289 C 117.796 12.849,117.651 16.669,117.473 16.778 C 117.296 16.888,112.621 17.140,107.085 17.339 C 86.890 18.065,85.649 18.712,84.568 29.088 C 84.126 33.327,83.479 59.856,83.473 73.984 L 83.469 83.830 75.790 83.843 C 56.893 83.874,52.808 84.920,51.684 90.014 C 50.576 95.039,50.505 99.451,50.339 174.255 L 50.170 250.407 25.085 250.407 L 0.000 250.407 0.000 366.576 L 0.000 482.746 25.113 482.746 L 50.226 482.746 50.226 674.977 L 50.226 867.209 181.933 867.209 L 313.640 867.209 313.652 857.724 C 313.659 852.507,313.818 844.336,314.007 839.566 C 314.628 823.857,314.454 516.393,313.821 510.569 C 312.199 495.652,309.151 490.764,299.851 488.169 C 297.192 487.427,287.182 485.998,284.643 485.998 L 283.288 485.998 283.288 484.413 L 283.288 482.828 325.836 482.629 C 361.709 482.461,369.432 482.334,375.068 481.820 C 378.744 481.485,385.858 481.140,390.876 481.053 L 400.000 480.894 400.000 365.650 L 400.000 250.407 341.644 250.407 L 283.288 250.407 283.288 232.882 L 283.288 215.357 284.463 215.353 C 296.845 215.316,307.270 213.058,310.152 209.790 C 312.898 206.676,315.086 197.073,315.086 188.138 C 315.086 186.862,315.187 185.309,315.312 184.688 L 315.537 183.559 357.769 183.559 L 400.000 183.559 400.000 91.780 L 400.000 0.000 258.898 0.000 L 117.796 0.000 117.796 8.289 " stroke="none" fill="#ffffff" fill-rule="evenodd"></path><path id="path1" d="M117.796 8.289 C 117.796 12.849,117.651 16.669,117.473 16.778 C 117.296 16.888,112.621 17.140,107.085 17.339 C 86.890 18.065,85.649 18.712,84.568 29.088 C 84.126 33.327,83.479 59.856,83.473 73.984 L 83.469 83.830 75.790 83.843 C 56.893 83.874,52.808 84.920,51.684 90.014 C 50.576 95.039,50.505 99.451,50.339 174.255 L 50.170 250.407 25.085 250.407 L 0.000 250.407 0.000 366.576 L 0.000 482.746 25.113 482.746 L 50.226 482.746 50.226 674.977 L 50.226 867.209 181.933 867.209 L 313.640 867.209 313.652 857.724 C 313.659 852.507,313.818 844.336,314.007 839.566 C 314.628 823.857,314.454 516.393,313.821 510.569 C 312.199 495.652,309.151 490.764,299.851 488.169 C 297.192 487.427,287.182 485.998,284.643 485.998 L 283.288 485.998 283.288 484.413 L 283.288 482.828 325.836 482.629 C 361.709 482.461,369.432 482.334,375.068 481.820 C 378.744 481.485,385.858 481.140,390.876 481.053 L 400.000 480.894 400.000 365.650 L 400.000 250.407 341.644 250.407 L 283.288 250.407 283.288 232.882 L 283.288 215.357 284.463 215.353 C 296.845 215.316,307.270 213.058,310.152 209.790 C 312.898 206.676,315.086 197.073,315.086 188.138 C 315.086 186.862,315.187 185.309,315.312 184.688 L 315.537 183.559 357.769 183.559 L 400.000 183.559 400.000 91.780 L 400.000 0.000 258.898 0.000 L 117.796 0.000 117.796 8.289 " stroke="none" fill="#ffffff" fill-rule="evenodd"></path><path id="path2" d="M117.796 8.289 C 117.796 12.849,117.651 16.669,117.473 16.778 C 117.296 16.888,112.621 17.140,107.085 17.339 C 86.890 18.065,85.649 18.712,84.568 29.088 C 84.126 33.327,83.479 59.856,83.473 73.984 L 83.469 83.830 75.790 83.843 C 56.893 83.874,52.808 84.920,51.684 90.014 C 50.576 95.039,50.505 99.451,50.339 174.255 L 50.170 250.407 25.085 250.407 L 0.000 250.407 0.000 366.576 L 0.000 482.746 25.113 482.746 L 50.226 482.746 50.226 674.977 L 50.226 867.209 181.933 867.209 L 313.640 867.209 313.652 857.724 C 313.659 852.507,313.818 844.336,314.007 839.566 C 314.628 823.857,314.454 516.393,313.821 510.569 C 312.199 495.652,309.151 490.764,299.851 488.169 C 297.192 487.427,287.182 485.998,284.643 485.998 L 283.288 485.998 283.288 484.413 L 283.288 482.828 325.836 482.629 C 361.709 482.461,369.432 482.334,375.068 481.820 C 378.744 481.485,385.858 481.140,390.876 481.053 L 400.000 480.894 400.000 365.650 L 400.000 250.407 341.644 250.407 L 283.288 250.407 283.288 232.882 L 283.288 215.357 284.463 215.353 C 296.845 215.316,307.270 213.058,310.152 209.790 C 312.898 206.676,315.086 197.073,315.086 188.138 C 315.086 186.862,315.187 185.309,315.312 184.688 L 315.537 183.559 357.769 183.559 L 400.000 183.559 400.000 91.780 L 400.000 0.000 258.898 0.000 L 117.796 0.000 117.796 8.289 " stroke="none" fill="#ffffff" fill-rule="evenodd"></path><path id="path3" d="M117.796 8.289 C 117.796 12.849,117.651 16.669,117.473 16.778 C 117.296 16.888,112.621 17.140,107.085 17.339 C 86.890 18.065,85.649 18.712,84.568 29.088 C 84.126 33.327,83.479 59.856,83.473 73.984 L 83.469 83.830 75.790 83.843 C 56.893 83.874,52.808 84.920,51.684 90.014 C 50.576 95.039,50.505 99.451,50.339 174.255 L 50.170 250.407 25.085 250.407 L 0.000 250.407 0.000 366.576 L 0.000 482.746 25.113 482.746 L 50.226 482.746 50.226 674.977 L 50.226 867.209 181.933 867.209 L 313.640 867.209 313.652 857.724 C 313.659 852.507,313.818 844.336,314.007 839.566 C 314.628 823.857,314.454 516.393,313.821 510.569 C 312.199 495.652,309.151 490.764,299.851 488.169 C 297.192 487.427,287.182 485.998,284.643 485.998 L 283.288 485.998 283.288 484.413 L 283.288 482.828 325.836 482.629 C 361.709 482.461,369.432 482.334,375.068 481.820 C 378.744 481.485,385.858 481.140,390.876 481.053 L 400.000 480.894 400.000 365.650 L 400.000 250.407 341.644 250.407 L 283.288 250.407 283.288 232.882 L 283.288 215.357 284.463 215.353 C 296.845 215.316,307.270 213.058,310.152 209.790 C 312.898 206.676,315.086 197.073,315.086 188.138 C 315.086 186.862,315.187 185.309,315.312 184.688 L 315.537 183.559 357.769 183.559 L 400.000 183.559 400.000 91.780 L 400.000 0.000 258.898 0.000 L 117.796 0.000 117.796 8.289 " stroke="none" fill="#ffffff" fill-rule="evenodd"></path><path id="path4" d="M117.796 8.289 C 117.796 12.849,117.651 16.669,117.473 16.778 C 117.296 16.888,112.621 17.140,107.085 17.339 C 86.890 18.065,85.649 18.712,84.568 29.088 C 84.126 33.327,83.479 59.856,83.473 73.984 L 83.469 83.830 75.790 83.843 C 56.893 83.874,52.808 84.920,51.684 90.014 C 50.576 95.039,50.505 99.451,50.339 174.255 L 50.170 250.407 25.085 250.407 L 0.000 250.407 0.000 366.576 L 0.000 482.746 25.113 482.746 L 50.226 482.746 50.226 674.977 L 50.226 867.209 181.933 867.209 L 313.640 867.209 313.652 857.724 C 313.659 852.507,313.818 844.336,314.007 839.566 C 314.628 823.857,314.454 516.393,313.821 510.569 C 312.199 495.652,309.151 490.764,299.851 488.169 C 297.192 487.427,287.182 485.998,284.643 485.998 L 283.288 485.998 283.288 484.413 L 283.288 482.828 325.836 482.629 C 361.709 482.461,369.432 482.334,375.068 481.820 C 378.744 481.485,385.858 481.140,390.876 481.053 L 400.000 480.894 400.000 365.650 L 400.000 250.407 341.644 250.407 L 283.288 250.407 283.288 232.882 L 283.288 215.357 284.463 215.353 C 296.845 215.316,307.270 213.058,310.152 209.790 C 312.898 206.676,315.086 197.073,315.086 188.138 C 315.086 186.862,315.187 185.309,315.312 184.688 L 315.537 183.559 357.769 183.559 L 400.000 183.559 400.000 91.780 L 400.000 0.000 258.898 0.000 L 117.796 0.000 117.796 8.289 " stroke="none" fill="#ffffff" fill-rule="evenodd"></path></g></svg>