<svg xmlns="http://www.w3.org/2000/svg" width="206" height="52" xmlns:xlink="http://www.w3.org/1999/xlink">
  <defs>
    <path id="a" d="M47.1726379.445H.75774617v50.5545H47.1726379z"/>
  </defs>
  <g fill="none" fill-rule="evenodd">
    <g transform="translate(158 .555)">
      <mask id="b" fill="#fff">
        <use xlink:href="#a"/>
      </mask>
      <path fill="#fff" d="M34.5652 17.3195l-2.431 16.458c-.555 3.889-4.931 5.695-8.958 5.695-3.75 0-7.431-1.806-6.945-5.347l2.431-16.806c.555-3.681 4.931-5.556 8.958-5.556 4.028 0 7.5 1.875 6.945 5.556M29.5442.4525l.001-.008H3.3772c-.668 0-1.236.491-1.332 1.152l-1.273 8.694c-.119.813.512 1.542 1.333 1.542h4.779c.48 0 .809.49.62.933-.596 1.397-1.031 2.915-1.272 4.554l-2.431 16.806c-1.598 11.25 7.778 16.874 17.986 16.874 10.695 0 21.181-5.624 22.778-16.874l2.43-16.806c1.566-11.028-7.479-16.65-17.451-16.867" mask="url(#b)"/>
    </g>
    <path fill="#fff" d="M30.3537 24.0139l.134 8.158c.003.167-.11.315-.272.356h-.001l-2.771-9.84c-.004-.015-.01-.029-.016-.044l-8.599-20.132c-.212-.496-.699-.817-1.239-.817h-9.745c-.672 0-1.241.495-1.334 1.16l-6.497 46.472c-.114.811.515 1.534 1.333 1.534h9.708c.673 0 1.243-.497 1.335-1.163l2.544-18.463c.003-.018.004-.036.004-.054l-.139-9.487.277-.069 2.911 9.84c.005.014.01.027.015.041l8.043 18.544c.213.492.699.811 1.235.811h10.513c.672 0 1.241-.495 1.334-1.161l6.499-46.472c.113-.81-.516-1.533-1.334-1.533h-9.641c-.672 0-1.241.494-1.334 1.159l-2.96 21.104c-.002.018-.003.037-.003.056m18.788 26.8468h9.71c.672 0 1.241-.495 1.334-1.16l6.498-46.473c.113-.81-.516-1.533-1.334-1.533h-9.71c-.672 0-1.241.495-1.334 1.16l-6.498 46.473c-.113.81.516 1.533 1.334 1.533M73.2423 2.7773l-1.272 8.694c-.119.813.511 1.542 1.332 1.542h10.161c.817 0 1.446.721 1.335 1.531l-4.787 34.786c-.111.809.517 1.53 1.334 1.53h9.851c.673 0 1.242-.496 1.334-1.163l4.888-35.521c.092-.666.661-1.163 1.334-1.163h10.925c.668 0 1.236-.49 1.332-1.152l1.274-8.694c.119-.813-.511-1.542-1.333-1.542h-36.375c-.669 0-1.236.491-1.333 1.152m68.8351 16.0695c-.348 2.847-2.569 5.694-6.39 5.694h-5.739c-.82 0-1.449-.725-1.334-1.536l1.215-8.556c.094-.664.663-1.158 1.334-1.158h6.122c3.681 0 5.139 2.57 4.792 5.556m-3.403-17.152h-18.481c-.672 0-1.241.495-1.334 1.16l-6.498 46.473c-.113.81.516 1.533 1.334 1.533h9.847c.673 0 1.243-.497 1.335-1.163l1.912-13.881c.046-.333.33-.581.667-.581h1.266c.229 0 .443.117.567.31l9.404 14.694c.248.387.675.621 1.135.621h12.162c1.09 0 1.729-1.226 1.104-2.119l-9.869-14.107c-.236-.339-.115-.809.256-.99 6.301-3.079 9.959-6.234 11.166-15.006 1.387-11.528-5.834-16.944-15.973-16.944"/>
  </g>
</svg>